<mxfile host="app.diagrams.net" modified="2023-12-08T08:06:11.354Z" agent="Mozilla/5.0 (X11; Linux x86_64) AppleWebKit/537.36 (KHTML, like Gecko) Chrome/120.0.0.0 Safari/537.36" etag="oO23pN7ZjHYvG7DNE6E6" version="22.1.7" type="github">
  <diagram name="Page-1" id="VltcZmfvqYnKoC6824LA">
    <mxGraphModel dx="2059" dy="1298" grid="0" gridSize="10" guides="1" tooltips="1" connect="1" arrows="1" fold="1" page="0" pageScale="1" pageWidth="850" pageHeight="1100" math="0" shadow="0">
      <root>
        <mxCell id="0" />
        <mxCell id="1" parent="0" />
        <mxCell id="hmCByup1z4MXVWYx3gq7-21" value="" style="rounded=0;whiteSpace=wrap;html=1;fillColor=#d5e8d4;strokeColor=#82b366;" vertex="1" parent="1">
          <mxGeometry x="-111" y="295" width="1102" height="513" as="geometry" />
        </mxCell>
        <mxCell id="hmCByup1z4MXVWYx3gq7-80" value="" style="rounded=0;whiteSpace=wrap;html=1;fillColor=#e1d5e7;strokeColor=#9673a6;" vertex="1" parent="1">
          <mxGeometry x="759" y="362" width="198.5" height="351" as="geometry" />
        </mxCell>
        <mxCell id="hmCByup1z4MXVWYx3gq7-52" value="" style="group;fillColor=#fff2cc;strokeColor=#d6b656;container=0;" vertex="1" connectable="0" parent="1">
          <mxGeometry x="291" y="366" width="198.5" height="351" as="geometry" />
        </mxCell>
        <mxCell id="hmCByup1z4MXVWYx3gq7-15" value="" style="rounded=0;whiteSpace=wrap;html=1;fillColor=#ffe6cc;strokeColor=#d79b00;" vertex="1" parent="1">
          <mxGeometry x="409" y="-112" width="181" height="193" as="geometry" />
        </mxCell>
        <mxCell id="hmCByup1z4MXVWYx3gq7-6" value="" style="rounded=0;whiteSpace=wrap;html=1;fillColor=#dae8fc;strokeColor=#6c8ebf;" vertex="1" parent="1">
          <mxGeometry x="6" y="31" width="168" height="235" as="geometry" />
        </mxCell>
        <mxCell id="LY4emqoukK_nlXgEsY6r-1" value="" style="image;aspect=fixed;perimeter=ellipsePerimeter;html=1;align=center;shadow=0;dashed=0;spacingTop=3;image=img/lib/active_directory/internet_cloud.svg;fontSize=16;" parent="1" vertex="1">
          <mxGeometry x="-313" y="110" width="143.43" height="90.36" as="geometry" />
        </mxCell>
        <mxCell id="LY4emqoukK_nlXgEsY6r-2" value="Internet" style="text;html=1;strokeColor=none;fillColor=none;align=center;verticalAlign=middle;whiteSpace=wrap;rounded=0;fontSize=16;" parent="1" vertex="1">
          <mxGeometry x="-271.29" y="140.18" width="60" height="30" as="geometry" />
        </mxCell>
        <mxCell id="LY4emqoukK_nlXgEsY6r-7" value="" style="image;aspect=fixed;perimeter=ellipsePerimeter;html=1;align=center;shadow=0;dashed=0;spacingTop=3;image=img/lib/active_directory/cluster_server.svg;fontSize=16;" parent="1" vertex="1">
          <mxGeometry x="-18" y="130" width="63" height="63" as="geometry" />
        </mxCell>
        <mxCell id="hmCByup1z4MXVWYx3gq7-4" value="" style="endArrow=none;html=1;rounded=0;entryX=0;entryY=0.5;entryDx=0;entryDy=0;exitX=0.99;exitY=0.575;exitDx=0;exitDy=0;exitPerimeter=0;" edge="1" parent="1" source="LY4emqoukK_nlXgEsY6r-1" target="LY4emqoukK_nlXgEsY6r-7">
          <mxGeometry width="50" height="50" relative="1" as="geometry">
            <mxPoint x="-131.57" y="162" as="sourcePoint" />
            <mxPoint x="-81.57" y="112" as="targetPoint" />
          </mxGeometry>
        </mxCell>
        <mxCell id="hmCByup1z4MXVWYx3gq7-5" value="" style="endArrow=none;html=1;rounded=0;entryX=0.028;entryY=0.625;entryDx=0;entryDy=0;entryPerimeter=0;" edge="1" parent="1" target="LY4emqoukK_nlXgEsY6r-13">
          <mxGeometry width="50" height="50" relative="1" as="geometry">
            <mxPoint x="45" y="164" as="sourcePoint" />
            <mxPoint x="95" y="114" as="targetPoint" />
          </mxGeometry>
        </mxCell>
        <mxCell id="hmCByup1z4MXVWYx3gq7-7" value="Proxmox" style="text;html=1;strokeColor=none;fillColor=none;align=center;verticalAlign=middle;whiteSpace=wrap;rounded=0;" vertex="1" parent="1">
          <mxGeometry x="-18" y="100" width="60" height="30" as="geometry" />
        </mxCell>
        <mxCell id="hmCByup1z4MXVWYx3gq7-8" value="pfSense" style="text;html=1;strokeColor=none;fillColor=none;align=center;verticalAlign=middle;whiteSpace=wrap;rounded=0;" vertex="1" parent="1">
          <mxGeometry x="148" y="100" width="60" height="30" as="geometry" />
        </mxCell>
        <mxCell id="hmCByup1z4MXVWYx3gq7-9" value="WAN&lt;br&gt;10.0.0.0/30" style="text;html=1;strokeColor=none;fillColor=none;align=center;verticalAlign=middle;whiteSpace=wrap;rounded=0;" vertex="1" parent="1">
          <mxGeometry x="31" y="234" width="118" height="30" as="geometry" />
        </mxCell>
        <mxCell id="hmCByup1z4MXVWYx3gq7-10" value=".1" style="text;html=1;strokeColor=none;fillColor=none;align=center;verticalAlign=middle;whiteSpace=wrap;rounded=0;" vertex="1" parent="1">
          <mxGeometry x="17" y="163" width="60" height="30" as="geometry" />
        </mxCell>
        <mxCell id="hmCByup1z4MXVWYx3gq7-11" value=".2" style="text;html=1;strokeColor=none;fillColor=none;align=center;verticalAlign=middle;whiteSpace=wrap;rounded=0;" vertex="1" parent="1">
          <mxGeometry x="101" y="163" width="60" height="30" as="geometry" />
        </mxCell>
        <mxCell id="hmCByup1z4MXVWYx3gq7-12" value="10.202.100.200" style="text;html=1;strokeColor=none;fillColor=none;align=center;verticalAlign=middle;whiteSpace=wrap;rounded=0;" vertex="1" parent="1">
          <mxGeometry x="-125" y="187.18" width="164" height="30" as="geometry" />
        </mxCell>
        <mxCell id="hmCByup1z4MXVWYx3gq7-16" value="" style="image;sketch=0;aspect=fixed;html=1;points=[];align=center;fontSize=12;image=img/lib/mscae/VM_Linux.svg;" vertex="1" parent="1">
          <mxGeometry x="483.17" y="-73" width="74.07" height="68.14" as="geometry" />
        </mxCell>
        <mxCell id="hmCByup1z4MXVWYx3gq7-17" value="LAN&lt;br&gt;192.168.1.0/24" style="text;html=1;strokeColor=none;fillColor=none;align=center;verticalAlign=middle;whiteSpace=wrap;rounded=0;" vertex="1" parent="1">
          <mxGeometry x="440.51" y="43" width="118" height="30" as="geometry" />
        </mxCell>
        <mxCell id="hmCByup1z4MXVWYx3gq7-18" value="VM Provisionning" style="text;html=1;strokeColor=none;fillColor=none;align=center;verticalAlign=middle;whiteSpace=wrap;rounded=0;" vertex="1" parent="1">
          <mxGeometry x="462.46" y="-101" width="115.49" height="30" as="geometry" />
        </mxCell>
        <mxCell id="hmCByup1z4MXVWYx3gq7-19" value=".3" style="text;html=1;strokeColor=none;fillColor=none;align=center;verticalAlign=middle;whiteSpace=wrap;rounded=0;" vertex="1" parent="1">
          <mxGeometry x="451" y="-14" width="60" height="30" as="geometry" />
        </mxCell>
        <mxCell id="hmCByup1z4MXVWYx3gq7-20" value=".2" style="text;html=1;strokeColor=none;fillColor=none;align=center;verticalAlign=middle;whiteSpace=wrap;rounded=0;" vertex="1" parent="1">
          <mxGeometry x="391" y="-14" width="60" height="30" as="geometry" />
        </mxCell>
        <mxCell id="hmCByup1z4MXVWYx3gq7-24" value="" style="endArrow=none;dashed=1;html=1;dashPattern=1 3;strokeWidth=2;rounded=0;" edge="1" parent="1" source="LY4emqoukK_nlXgEsY6r-13">
          <mxGeometry width="50" height="50" relative="1" as="geometry">
            <mxPoint x="241" y="69" as="sourcePoint" />
            <mxPoint x="386" y="-33" as="targetPoint" />
            <Array as="points">
              <mxPoint x="272" y="69" />
              <mxPoint x="306" y="-4" />
            </Array>
          </mxGeometry>
        </mxCell>
        <mxCell id="hmCByup1z4MXVWYx3gq7-23" value="" style="image;html=1;image=img/lib/clip_art/networking/Firewall_02_128x128.png;fontSize=16;" vertex="1" parent="1">
          <mxGeometry x="365" y="-66.85999999999999" width="71" height="64" as="geometry" />
        </mxCell>
        <mxCell id="hmCByup1z4MXVWYx3gq7-25" value="" style="endArrow=none;html=1;rounded=0;" edge="1" parent="1">
          <mxGeometry width="50" height="50" relative="1" as="geometry">
            <mxPoint x="426.99999999999994" y="-35.360000000000014" as="sourcePoint" />
            <mxPoint x="480.99999999999994" y="-35.36" as="targetPoint" />
          </mxGeometry>
        </mxCell>
        <mxCell id="hmCByup1z4MXVWYx3gq7-27" value="" style="endArrow=none;dashed=1;html=1;dashPattern=1 3;strokeWidth=2;rounded=0;exitX=0.662;exitY=0.825;exitDx=0;exitDy=0;exitPerimeter=0;entryX=0.225;entryY=0.156;entryDx=0;entryDy=0;entryPerimeter=0;" edge="1" parent="1" source="LY4emqoukK_nlXgEsY6r-13" target="hmCByup1z4MXVWYx3gq7-26">
          <mxGeometry width="50" height="50" relative="1" as="geometry">
            <mxPoint x="308" y="258" as="sourcePoint" />
            <mxPoint x="358" y="208" as="targetPoint" />
            <Array as="points">
              <mxPoint x="298" y="201" />
            </Array>
          </mxGeometry>
        </mxCell>
        <mxCell id="LY4emqoukK_nlXgEsY6r-13" value="" style="image;html=1;image=img/lib/clip_art/networking/Firewall_02_128x128.png;fontSize=16;" parent="1" vertex="1">
          <mxGeometry x="139" y="123.18" width="71" height="64" as="geometry" />
        </mxCell>
        <mxCell id="hmCByup1z4MXVWYx3gq7-28" value="VLAN10&lt;br&gt;192.168.10.0/24" style="text;html=1;strokeColor=none;fillColor=none;align=center;verticalAlign=middle;whiteSpace=wrap;rounded=0;" vertex="1" parent="1">
          <mxGeometry x="367.63" y="768" width="106.74" height="30" as="geometry" />
        </mxCell>
        <mxCell id="hmCByup1z4MXVWYx3gq7-26" value="" style="image;html=1;image=img/lib/clip_art/networking/Firewall_02_128x128.png;fontSize=16;" vertex="1" parent="1">
          <mxGeometry x="350" y="264" width="71" height="64" as="geometry" />
        </mxCell>
        <mxCell id="hmCByup1z4MXVWYx3gq7-67" value="" style="endArrow=none;html=1;rounded=0;" edge="1" parent="1" target="hmCByup1z4MXVWYx3gq7-53">
          <mxGeometry width="50" height="50" relative="1" as="geometry">
            <mxPoint x="489.5" y="473" as="sourcePoint" />
            <mxPoint x="539.5" y="423" as="targetPoint" />
          </mxGeometry>
        </mxCell>
        <mxCell id="hmCByup1z4MXVWYx3gq7-68" value="trust" style="text;html=1;strokeColor=none;fillColor=none;align=center;verticalAlign=middle;whiteSpace=wrap;rounded=0;" vertex="1" parent="1">
          <mxGeometry x="489.5" y="440.5" width="60" height="30" as="geometry" />
        </mxCell>
        <mxCell id="hmCByup1z4MXVWYx3gq7-81" value="" style="endArrow=none;html=1;rounded=0;" edge="1" parent="1">
          <mxGeometry width="50" height="50" relative="1" as="geometry">
            <mxPoint x="698" y="472" as="sourcePoint" />
            <mxPoint x="758.5" y="472" as="targetPoint" />
          </mxGeometry>
        </mxCell>
        <mxCell id="hmCByup1z4MXVWYx3gq7-82" value="trust" style="text;html=1;strokeColor=none;fillColor=none;align=center;verticalAlign=middle;whiteSpace=wrap;rounded=0;" vertex="1" parent="1">
          <mxGeometry x="698" y="439" width="60" height="30" as="geometry" />
        </mxCell>
        <mxCell id="hmCByup1z4MXVWYx3gq7-86" value="" style="endArrow=none;html=1;rounded=0;" edge="1" parent="1">
          <mxGeometry width="50" height="50" relative="1" as="geometry">
            <mxPoint x="416" y="604" as="sourcePoint" />
            <mxPoint x="895" y="604" as="targetPoint" />
          </mxGeometry>
        </mxCell>
        <mxCell id="hmCByup1z4MXVWYx3gq7-89" value="MSSQL trust" style="text;html=1;strokeColor=none;fillColor=none;align=center;verticalAlign=middle;whiteSpace=wrap;rounded=0;" vertex="1" parent="1">
          <mxGeometry x="562.5" y="611" width="134" height="30" as="geometry" />
        </mxCell>
        <mxCell id="hmCByup1z4MXVWYx3gq7-92" value="" style="group" vertex="1" connectable="0" parent="1">
          <mxGeometry x="550" y="366" width="159" height="213" as="geometry" />
        </mxCell>
        <mxCell id="hmCByup1z4MXVWYx3gq7-53" value="" style="rounded=0;whiteSpace=wrap;html=1;fillColor=#f8cecc;strokeColor=#b85450;" vertex="1" parent="hmCByup1z4MXVWYx3gq7-92">
          <mxGeometry width="148" height="213" as="geometry" />
        </mxCell>
        <mxCell id="hmCByup1z4MXVWYx3gq7-44" value="" style="group" vertex="1" connectable="0" parent="hmCByup1z4MXVWYx3gq7-92">
          <mxGeometry x="41.5" y="15" width="65" height="130" as="geometry" />
        </mxCell>
        <mxCell id="hmCByup1z4MXVWYx3gq7-33" value="" style="verticalLabelPosition=bottom;sketch=0;aspect=fixed;html=1;verticalAlign=top;strokeColor=none;align=center;outlineConnect=0;shape=mxgraph.citrix.directory_server;" vertex="1" parent="hmCByup1z4MXVWYx3gq7-44">
          <mxGeometry width="65" height="88.5" as="geometry" />
        </mxCell>
        <mxCell id="hmCByup1z4MXVWYx3gq7-38" value="DC01" style="text;html=1;strokeColor=none;fillColor=none;align=center;verticalAlign=middle;whiteSpace=wrap;rounded=0;" vertex="1" parent="hmCByup1z4MXVWYx3gq7-44">
          <mxGeometry x="2.5" y="100" width="60" height="30" as="geometry" />
        </mxCell>
        <mxCell id="hmCByup1z4MXVWYx3gq7-65" value="sevenkingdoms.local" style="text;html=1;strokeColor=none;fillColor=none;align=center;verticalAlign=middle;whiteSpace=wrap;rounded=0;" vertex="1" parent="hmCByup1z4MXVWYx3gq7-92">
          <mxGeometry x="18" y="176" width="112" height="30" as="geometry" />
        </mxCell>
        <mxCell id="hmCByup1z4MXVWYx3gq7-66" value=".10" style="text;html=1;strokeColor=none;fillColor=none;align=center;verticalAlign=middle;whiteSpace=wrap;rounded=0;" vertex="1" parent="hmCByup1z4MXVWYx3gq7-92">
          <mxGeometry x="99" y="73" width="60" height="30" as="geometry" />
        </mxCell>
        <mxCell id="hmCByup1z4MXVWYx3gq7-46" value="" style="group" vertex="1" connectable="0" parent="1">
          <mxGeometry x="825.75" y="380" width="65" height="132" as="geometry" />
        </mxCell>
        <mxCell id="hmCByup1z4MXVWYx3gq7-35" value="" style="verticalLabelPosition=bottom;sketch=0;aspect=fixed;html=1;verticalAlign=top;strokeColor=none;align=center;outlineConnect=0;shape=mxgraph.citrix.directory_server;" vertex="1" parent="hmCByup1z4MXVWYx3gq7-46">
          <mxGeometry width="65" height="88.5" as="geometry" />
        </mxCell>
        <mxCell id="hmCByup1z4MXVWYx3gq7-40" value="DC03" style="text;html=1;strokeColor=none;fillColor=none;align=center;verticalAlign=middle;whiteSpace=wrap;rounded=0;" vertex="1" parent="hmCByup1z4MXVWYx3gq7-46">
          <mxGeometry x="5" y="102" width="60" height="30" as="geometry" />
        </mxCell>
        <mxCell id="hmCByup1z4MXVWYx3gq7-83" value="essos.local" style="text;html=1;strokeColor=none;fillColor=none;align=center;verticalAlign=middle;whiteSpace=wrap;rounded=0;" vertex="1" parent="1">
          <mxGeometry x="767.25" y="678" width="182" height="30" as="geometry" />
        </mxCell>
        <mxCell id="hmCByup1z4MXVWYx3gq7-84" value=".12" style="text;html=1;strokeColor=none;fillColor=none;align=center;verticalAlign=middle;whiteSpace=wrap;rounded=0;" vertex="1" parent="1">
          <mxGeometry x="884" y="439" width="60" height="30" as="geometry" />
        </mxCell>
        <mxCell id="hmCByup1z4MXVWYx3gq7-85" value=".23" style="text;html=1;strokeColor=none;fillColor=none;align=center;verticalAlign=middle;whiteSpace=wrap;rounded=0;" vertex="1" parent="1">
          <mxGeometry x="895" y="561" width="60" height="30" as="geometry" />
        </mxCell>
        <mxCell id="hmCByup1z4MXVWYx3gq7-93" value="" style="group" vertex="1" connectable="0" parent="1">
          <mxGeometry x="825.75" y="529" width="80" height="132.75" as="geometry" />
        </mxCell>
        <mxCell id="hmCByup1z4MXVWYx3gq7-36" value="" style="verticalLabelPosition=bottom;sketch=0;aspect=fixed;html=1;verticalAlign=top;strokeColor=none;align=center;outlineConnect=0;shape=mxgraph.citrix.database_server;" vertex="1" parent="hmCByup1z4MXVWYx3gq7-93">
          <mxGeometry width="80" height="90" as="geometry" />
        </mxCell>
        <mxCell id="hmCByup1z4MXVWYx3gq7-42" value="SRV03" style="text;html=1;strokeColor=none;fillColor=none;align=center;verticalAlign=middle;whiteSpace=wrap;rounded=0;" vertex="1" parent="hmCByup1z4MXVWYx3gq7-93">
          <mxGeometry y="102.75" width="60" height="30" as="geometry" />
        </mxCell>
        <mxCell id="hmCByup1z4MXVWYx3gq7-45" value="" style="group" vertex="1" connectable="0" parent="1">
          <mxGeometry x="353" y="391" width="65" height="129" as="geometry" />
        </mxCell>
        <mxCell id="hmCByup1z4MXVWYx3gq7-34" value="" style="verticalLabelPosition=bottom;sketch=0;aspect=fixed;html=1;verticalAlign=top;strokeColor=none;align=center;outlineConnect=0;shape=mxgraph.citrix.directory_server;" vertex="1" parent="hmCByup1z4MXVWYx3gq7-45">
          <mxGeometry width="65" height="88.5" as="geometry" />
        </mxCell>
        <mxCell id="hmCByup1z4MXVWYx3gq7-39" value="DC02" style="text;html=1;strokeColor=none;fillColor=none;align=center;verticalAlign=middle;whiteSpace=wrap;rounded=0;" vertex="1" parent="hmCByup1z4MXVWYx3gq7-45">
          <mxGeometry x="5" y="99" width="60" height="30" as="geometry" />
        </mxCell>
        <mxCell id="hmCByup1z4MXVWYx3gq7-47" value="" style="group" vertex="1" connectable="0" parent="1">
          <mxGeometry x="350.25" y="524" width="80" height="132" as="geometry" />
        </mxCell>
        <mxCell id="hmCByup1z4MXVWYx3gq7-41" value="SRV02" style="text;html=1;strokeColor=none;fillColor=none;align=center;verticalAlign=middle;whiteSpace=wrap;rounded=0;" vertex="1" parent="hmCByup1z4MXVWYx3gq7-47">
          <mxGeometry x="10" y="102" width="60" height="30" as="geometry" />
        </mxCell>
        <mxCell id="hmCByup1z4MXVWYx3gq7-37" value="" style="verticalLabelPosition=bottom;sketch=0;aspect=fixed;html=1;verticalAlign=top;strokeColor=none;align=center;outlineConnect=0;shape=mxgraph.citrix.database_server;" vertex="1" parent="hmCByup1z4MXVWYx3gq7-47">
          <mxGeometry width="80" height="90" as="geometry" />
        </mxCell>
        <mxCell id="hmCByup1z4MXVWYx3gq7-49" value="north.sevenkingdoms.local" style="text;html=1;strokeColor=none;fillColor=none;align=center;verticalAlign=middle;whiteSpace=wrap;rounded=0;" vertex="1" parent="1">
          <mxGeometry x="294.5" y="683" width="182" height="30" as="geometry" />
        </mxCell>
        <mxCell id="hmCByup1z4MXVWYx3gq7-50" value=".11" style="text;html=1;strokeColor=none;fillColor=none;align=center;verticalAlign=middle;whiteSpace=wrap;rounded=0;" vertex="1" parent="1">
          <mxGeometry x="416.5" y="451" width="60" height="30" as="geometry" />
        </mxCell>
        <mxCell id="hmCByup1z4MXVWYx3gq7-51" value=".22" style="text;html=1;strokeColor=none;fillColor=none;align=center;verticalAlign=middle;whiteSpace=wrap;rounded=0;" vertex="1" parent="1">
          <mxGeometry x="423.17" y="567" width="60" height="30" as="geometry" />
        </mxCell>
        <mxCell id="hmCByup1z4MXVWYx3gq7-94" value="" style="verticalLabelPosition=bottom;sketch=0;aspect=fixed;html=1;verticalAlign=top;strokeColor=none;align=center;outlineConnect=0;shape=mxgraph.citrix.file_server;" vertex="1" parent="1">
          <mxGeometry x="-47" y="391" width="71" height="97" as="geometry" />
        </mxCell>
        <mxCell id="hmCByup1z4MXVWYx3gq7-95" value="" style="verticalLabelPosition=bottom;sketch=0;aspect=fixed;html=1;verticalAlign=top;strokeColor=none;align=center;outlineConnect=0;shape=mxgraph.citrix.file_server;" vertex="1" parent="1">
          <mxGeometry x="-54" y="579" width="71" height="97" as="geometry" />
        </mxCell>
        <mxCell id="hmCByup1z4MXVWYx3gq7-96" value="" style="verticalLabelPosition=bottom;sketch=0;aspect=fixed;html=1;verticalAlign=top;strokeColor=none;align=center;outlineConnect=0;shape=mxgraph.citrix.file_server;" vertex="1" parent="1">
          <mxGeometry x="115" y="391" width="71" height="97" as="geometry" />
        </mxCell>
        <mxCell id="hmCByup1z4MXVWYx3gq7-97" value="" style="verticalLabelPosition=bottom;sketch=0;aspect=fixed;html=1;verticalAlign=top;strokeColor=none;align=center;outlineConnect=0;shape=mxgraph.citrix.file_server;" vertex="1" parent="1">
          <mxGeometry x="115" y="579" width="71" height="97" as="geometry" />
        </mxCell>
      </root>
    </mxGraphModel>
  </diagram>
</mxfile>
